<?xml version="1.0" standalone="no"?>
<!DOCTYPE svg PUBLIC "-//W3C//DTD SVG 20010904//EN"
 "http://www.w3.org/TR/2001/REC-SVG-20010904/DTD/svg10.dtd">
<svg version="1.0" xmlns="http://www.w3.org/2000/svg"
 width="401.000000pt" height="128.000000pt" viewBox="0 0 401.000000 128.000000"
 preserveAspectRatio="xMidYMid meet">
<metadata>
Created by potrace 1.16, written by Peter Selinger 2001-2019
</metadata>
<g transform="translate(0.000000,128.000000) scale(0.100000,-0.100000)"
fill="#ffffff" stroke="none">
<path d="M55 1232 c-3 -3 -5 -270 -5 -594 l0 -588 190 0 190 0 2 216 3 217
138 -206 c77 -114 145 -211 152 -217 8 -7 96 -9 259 -8 l247 3 -68 85 c-149
187 -369 466 -376 477 -5 8 64 120 179 290 103 153 194 286 202 296 8 9 12 20
8 25 -4 4 -100 8 -212 9 -183 3 -206 1 -220 -15 -9 -9 -83 -115 -165 -236
l-149 -219 0 237 0 237 -185 -2 c-102 -1 -187 -4 -190 -7z"/>
<path d="M1287 1234 c-4 -4 -7 -272 -7 -596 l0 -588 190 0 190 0 2 580 c0 319
1 586 2 593 1 9 -44 13 -185 15 -102 1 -188 -1 -192 -4z"/>
<path d="M1862 1188 l-82 -53 0 -487 0 -487 78 -53 77 -53 353 -3 352 -3 0
196 0 195 -230 0 -230 0 0 210 0 210 230 0 230 0 0 190 0 190 -348 0 -347 0
-83 -52z"/>
<path d="M2765 1231 c-3 -2 -5 -269 -5 -593 l0 -588 200 0 200 0 2 222 3 223
50 -72 c28 -39 96 -139 153 -222 l103 -151 250 0 c137 0 249 4 249 8 0 8 -29
46 -185 237 -84 103 -154 191 -229 287 l-44 58 193 292 c135 203 191 295 182
300 -7 4 -101 8 -209 8 -151 0 -200 -3 -210 -13 -7 -8 -78 -109 -158 -226
l-145 -212 -5 223 -5 223 -193 0 c-106 1 -195 -1 -197 -4z"/>
</g>
</svg>
