<?xml version="1.0" standalone="no"?>
<!DOCTYPE svg PUBLIC "-//W3C//DTD SVG 20010904//EN"
 "http://www.w3.org/TR/2001/REC-SVG-20010904/DTD/svg10.dtd">
<svg version="1.0" xmlns="http://www.w3.org/2000/svg"
 width="384.000000pt" height="310.000000pt" viewBox="0 0 384.000000 310.000000"
 preserveAspectRatio="xMidYMid meet">
<metadata>
Created by potrace 1.16, written by Peter Selinger 2001-2019
</metadata>
<g transform="translate(0.000000,310.000000) scale(0.100000,-0.100000)"
fill="#ffffff" stroke="none">
<path d="M1642 2701 c-212 -52 -405 -215 -486 -409 -58 -138 -57 -124 -56
-1006 0 -771 1 -812 19 -836 24 -33 63 -47 98 -34 17 5 127 118 273 278 135
148 256 276 269 285 21 14 73 17 340 22 251 5 328 9 374 22 146 42 294 138
387 250 68 82 134 219 167 342 22 87 26 121 27 255 0 182 -20 284 -84 415
-101 210 -300 371 -517 419 -111 25 -708 22 -811 -3z m799 -289 c124 -50 229
-156 279 -282 69 -174 65 -418 -9 -577 -34 -73 -122 -170 -188 -208 -91 -54
-114 -57 -473 -64 -312 -6 -338 -7 -381 -27 -51 -24 -154 -116 -241 -217 l-58
-68 0 519 c0 486 1 524 20 597 43 166 151 285 308 336 51 17 88 18 372 16 301
-2 318 -3 371 -25z"/>
</g>
</svg>
