<?xml version="1.0" standalone="no"?>
<!DOCTYPE svg PUBLIC "-//W3C//DTD SVG 20010904//EN"
 "http://www.w3.org/TR/2001/REC-SVG-20010904/DTD/svg10.dtd">
<svg version="1.0" xmlns="http://www.w3.org/2000/svg"
 width="384.000000pt" height="310.000000pt" viewBox="0 0 384.000000 310.000000"
 preserveAspectRatio="xMidYMid meet">
<metadata>
Created by potrace 1.16, written by Peter Selinger 2001-2019
</metadata>
<g transform="translate(0.000000,310.000000) scale(0.100000,-0.100000)"
fill="#ffffff" stroke="none">
<path d="M1642 2701 c-212 -52 -405 -215 -486 -409 -58 -138 -57 -124 -56
-1006 0 -771 1 -812 19 -836 24 -33 63 -47 98 -34 17 5 127 118 273 278 135
148 256 276 269 285 21 14 73 17 340 22 251 5 328 9 374 22 146 42 294 138
387 250 68 82 134 219 167 342 22 87 26 121 27 255 0 182 -20 284 -84 415
-101 210 -300 371 -517 419 -111 25 -708 22 -811 -3z m799 -289 c124 -50 229
-156 279 -282 69 -174 65 -418 -9 -577 -34 -73 -122 -170 -188 -208 -91 -54
-114 -57 -473 -64 -312 -6 -338 -7 -381 -27 -51 -24 -154 -116 -241 -217 l-58
-68 0 519 c0 486 1 524 20 597 43 166 151 285 308 336 51 17 88 18 372 16 301
-2 318 -3 371 -25z"/>
<path d="M904 2571 c-52 -31 -208 -192 -263 -271 -157 -223 -235 -466 -234
-730 0 -324 107 -595 336 -854 78 -88 138 -136 181 -143 30 -5 40 -1 66 25 23
23 30 39 30 68 0 33 -7 43 -52 83 -170 148 -273 305 -336 512 -71 231 -50 534
52 755 68 146 138 241 268 364 69 65 80 80 85 117 5 36 2 45 -22 67 -33 31
-69 33 -111 7z"/>
<path d="M904 2076 c-58 -60 -131 -199 -159 -301 -57 -212 -11 -475 115 -670
76 -115 143 -145 194 -84 39 46 34 74 -38 181 -81 122 -106 193 -113 325 -9
166 19 270 112 413 62 95 67 125 29 164 -43 43 -78 36 -140 -28z"/>
</g>
</svg>
